<svg width="400" height="105" viewBox="0 0 400 105" fill="none" xmlns="http://www.w3.org/2000/svg">
  <!-- Centered container for plants + edaphic flora -->
  <g transform="translate(105, 13)">
    <!-- All content at scale 0.184 to fit text properly -->
    <g transform="scale(0.184)">
      <!-- Plants from logo.svg -->
      <path d="M233.399 149.972L237.399 149.972L237.399 270.114L233.399 270.114L233.399 149.972Z" fill="#7A9A86"/>
      <path d="M280.485 171.514C280.485 183.114 270.542 208.8 237.399 206.314C237.399 184.772 251.485 171.514 280.485 171.514Z" fill="#7A9A86"/>
      <path d="M280.485 217.086C280.485 228.686 270.542 254.372 237.399 251.886C237.399 230.343 251.485 217.086 280.485 217.086Z" fill="#7A9A86"/>
      <path d="M234.085 252.054C234.085 240.454 224.142 214.768 190.999 217.254C190.999 238.797 205.085 252.054 234.085 252.054Z" fill="#7A9A86"/>
      <path d="M234.085 206.483C234.085 194.883 224.142 169.197 190.999 171.683C190.999 193.226 205.085 206.483 234.085 206.483Z" fill="#7A9A86"/>
      <path d="M293.742 91.9716C293.742 124.004 267.775 149.972 235.742 149.972C203.71 149.972 177.742 124.004 177.742 91.9716H293.742Z" fill="#7A9A86"/>
      <path d="M198.457 87.8286C198.457 81.8797 203.094 77.0572 208.814 77.0572C214.534 77.0572 219.171 81.8797 219.171 87.8286L198.457 87.8286Z" fill="#7A9A86"/>
      <path d="M224.97 87.8286C224.97 81.8797 229.607 77.0572 235.327 77.0572C241.048 77.0572 245.685 81.8797 245.685 87.8286L224.97 87.8286Z" fill="#7A9A86"/>
      <path d="M251.485 87.8286C251.485 81.8797 256.122 77.0572 261.842 77.0572C267.562 77.0572 272.199 81.8797 272.199 87.8286L251.485 87.8286Z" fill="#7A9A86"/>
      <path d="M349.742 70.4288L353.742 70.4288L353.742 270.114L349.742 270.114L349.742 70.4288Z" fill="#7A9A86"/>
      <path d="M396.485 171.514C396.485 183.114 386.542 208.8 353.399 206.314C353.399 184.772 367.485 171.514 396.485 171.514Z" fill="#7A9A86"/>
      <path d="M396.485 125.943C396.485 137.543 386.542 163.229 353.399 160.743C353.399 139.2 367.485 125.943 396.485 125.943Z" fill="#7A9A86"/>
      <path d="M396.485 80.3716C396.485 91.9716 386.542 117.657 353.399 115.172C353.399 93.6287 367.485 80.3716 396.485 80.3716Z" fill="#7A9A86"/>
      <path d="M396.485 217.086C396.485 228.686 386.542 254.372 353.399 251.886C353.399 230.343 367.485 217.086 396.485 217.086Z" fill="#7A9A86"/>
      <path d="M350.085 252.054C350.085 240.454 340.142 214.768 306.999 217.254C306.999 238.797 321.085 252.054 350.085 252.054Z" fill="#7A9A86"/>
      <path d="M350.085 206.483C350.085 194.883 340.142 169.197 306.999 171.683C306.999 193.226 321.085 206.483 350.085 206.483Z" fill="#7A9A86"/>
      <path d="M350.085 160.911C350.085 149.311 340.142 123.626 306.999 126.111C306.999 147.654 321.085 160.911 350.085 160.911Z" fill="#7A9A86"/>
      <path d="M350.085 115.34C350.085 103.74 340.142 78.0541 306.999 80.5398C306.999 102.083 321.085 115.34 350.085 115.34Z" fill="#7A9A86"/>
      <path d="M409.742 14.9144C409.742 46.9469 383.775 72.9144 351.742 72.9144C319.71 72.9144 293.742 46.9469 293.742 14.9144H409.742Z" fill="#7A9A86"/>
      <path d="M314.457 10.7715C314.457 4.82259 319.094 0 324.814 0C330.534 0 335.171 4.82259 335.171 10.7715L314.457 10.7715Z" fill="#7A9A86"/>
      <path d="M340.97 10.7715C340.97 4.82259 345.607 0 351.327 0C357.048 0 361.685 4.82259 361.685 10.7715L340.97 10.7715Z" fill="#7A9A86"/>
      <path d="M367.485 10.7715C367.485 4.82259 372.122 0 377.842 0C383.562 0 388.199 4.82259 388.199 10.7715L367.485 10.7715Z" fill="#7A9A86"/>

      <!-- "edaphic" letters from logo.svg -->
      <path d="M607.743 362.731L618.754 373.559C610.312 380.41 600.647 383.835 589.759 383.835C576.179 383.835 565.291 379.492 557.094 370.806C548.897 361.997 544.799 351.048 544.799 337.957C544.799 325.112 549.081 314.284 557.645 305.476C566.331 296.545 577.036 292.08 589.759 292.08C600.647 292.08 610.312 295.505 618.754 302.356L607.927 313.367C602.788 309.452 596.733 307.495 589.759 307.495C581.318 307.495 574.589 310.308 569.573 315.936C564.679 321.441 562.232 328.782 562.232 337.957C562.232 347.133 564.679 354.535 569.573 360.162C574.589 365.668 581.318 368.42 589.759 368.42C596.855 368.42 602.85 366.524 607.743 362.731Z" fill="#7A9A86"/>
      <path d="M523.021 382H506.872V309.33H491.824L499.165 293.915H523.021V382ZM506.138 275.564C504.548 273.484 503.752 271.221 503.752 268.774C503.752 266.327 504.548 264.125 506.138 262.167C507.729 260.088 510.175 259.048 513.479 259.048C516.782 259.048 519.229 260.088 520.819 262.167C522.409 264.125 523.205 266.327 523.205 268.774C523.205 271.221 522.409 273.484 520.819 275.564C519.229 277.521 516.782 278.5 513.479 278.5C510.175 278.5 507.729 277.521 506.138 275.564Z" fill="#7A9A86"/>
      <path d="M420.333 253.542V293.915H435.931C449.511 293.915 459.237 295.933 465.109 299.971C470.37 303.518 473.673 307.8 475.019 312.816C476.487 317.71 477.221 324.194 477.221 332.269V382H461.072V332.452C461.072 330.25 461.011 328.415 460.889 326.947C460.766 325.356 460.338 323.399 459.604 321.074C458.87 318.628 457.83 316.67 456.484 315.202C455.139 313.612 453.181 312.266 450.612 311.165C448.043 309.941 444.923 309.33 441.253 309.33H420.333V382H404.184V253.542H420.333Z" fill="#7A9A86"/>
      <path d="M295.045 423.841V337.957C295.045 331.596 296.207 325.601 298.532 319.973C300.856 314.346 304.037 309.513 308.074 305.476C312.111 301.316 316.883 298.074 322.388 295.75C327.893 293.303 333.766 292.08 340.005 292.08C346.245 292.08 352.056 293.303 357.439 295.75C362.944 298.074 367.715 301.316 371.753 305.476C375.912 309.635 379.154 314.529 381.479 320.157C383.803 325.662 384.965 331.596 384.965 337.957C384.965 344.319 383.803 350.314 381.479 355.941C379.277 361.447 376.157 366.279 372.12 370.439C368.082 374.598 363.311 377.902 357.806 380.348C352.3 382.673 346.367 383.835 340.005 383.835C332.175 383.835 324.896 382 318.167 378.33V361.814C324.162 366.218 331.258 368.42 339.455 368.42C343.859 368.42 347.835 367.686 351.383 366.218C355.053 364.628 358.112 362.487 360.558 359.795C363.128 357.104 365.085 353.923 366.431 350.253C367.777 346.46 368.449 342.362 368.449 337.957C368.449 333.553 367.777 329.516 366.431 325.846C365.085 322.053 363.189 318.811 360.742 316.12C358.295 313.428 355.298 311.348 351.75 309.88C348.324 308.29 344.409 307.495 340.005 307.495C335.723 307.495 331.808 308.229 328.26 309.697C324.835 311.165 321.838 313.245 319.268 315.936C316.822 318.628 314.925 321.87 313.58 325.662C312.234 329.332 311.561 333.431 311.561 337.957V423.841H295.045Z" fill="#7A9A86"/>
      <path d="M251.749 330.25V346.766C247.1 343.218 241.411 341.444 234.683 341.444C228.933 341.444 224.467 342.606 221.286 344.931C218.105 347.133 216.515 350.314 216.515 354.473C216.515 362.548 222.51 366.585 234.499 366.585H258.723V331.534C258.723 316.731 251.505 309.33 237.068 309.33H207.706V293.915H237.986C249.853 293.915 258.967 296.851 265.329 302.723C271.691 308.596 274.872 317.037 274.872 328.048V382H233.949C223.55 382 215.292 379.676 209.175 375.027C203.058 370.378 199.999 363.588 199.999 354.657C199.999 345.726 203.241 338.936 209.725 334.287C216.209 329.638 224.345 327.314 234.132 327.314C239.637 327.314 245.51 328.292 251.749 330.25Z" fill="#7A9A86"/>
      <path d="M164.222 253.542H180.738V382H137.613C124.277 382 113.45 377.779 105.131 369.338C96.8119 360.774 92.6523 350.008 92.6523 337.04C92.6523 324.316 96.9343 313.673 105.498 305.109C114.184 296.423 124.461 292.08 136.328 292.08C143.913 292.08 151.009 293.915 157.615 297.585V314.101C151.498 309.697 144.403 307.495 136.328 307.495C128.988 307.495 122.748 310.247 117.61 315.753C112.594 321.136 110.086 328.231 110.086 337.04C110.086 345.971 112.472 353.128 117.243 358.511C122.136 363.894 128.926 366.585 137.613 366.585H164.222V253.542Z" fill="#7A9A86"/>
      <path d="M45.8778 292.08C66.6757 292.936 77.0747 301.561 77.0747 317.955C77.0747 338.386 63.6784 348.601 36.8858 348.601H29.3618V334.471H38.1703C46.3672 334.471 52.056 333.247 55.2369 330.8C58.4177 328.231 60.0082 324.011 60.0082 318.138C60.0082 314.346 58.6012 311.532 55.7874 309.697C52.9736 307.739 49.3645 306.761 44.9603 306.761C36.2741 306.761 29.423 309.819 24.407 315.936C19.5134 322.053 17.0665 329.394 17.0665 337.957C17.0665 347.011 19.6969 354.351 24.9575 359.979C30.3405 365.606 37.3139 368.42 45.8778 368.42C53.5853 368.42 59.8858 366.524 64.7795 362.731L75.7901 373.559C67.3486 380.41 57.3778 383.835 45.8778 383.835C31.931 383.835 20.7979 379.737 12.4788 371.54C4.15959 363.343 0 352.761 0 339.793C0 325.356 4.09842 313.673 12.2953 304.742C20.4921 295.811 31.6863 291.59 45.8778 292.08Z" fill="#7A9A86"/>

      <!-- "flora" letters - Baumans font paths positioned after "edaphic" -->
      <!-- f -->
      <path d="M714.549 309.023H693.356V382.000H676.770V309.023H664.239L671.610 293.543H676.770Q676.770 274.746 689.486 263.781Q702.201 252.816 721.920 252.816V268.296Q693.356 268.296 693.356 293.543H714.549Z" fill="#7A9A86"/>
      <!-- l -->
      <path d="M732.291 346.986V253.000H748.877V346.986Q748.877 353.620 750.444 357.766Q752.010 361.913 755.327 363.664Q758.644 365.414 761.777 365.967Q764.910 366.520 770.070 366.520V382.000Q749.430 382.000 740.861 374.076Q732.291 366.151 732.291 346.986Z" fill="#7A9A86"/>
      <!-- o -->
      <path d="M795.184 305.153Q808.084 291.700 827.434 291.700Q836.833 291.700 845.034 295.294Q853.234 298.887 859.408 305.153Q865.581 311.419 869.083 319.804Q872.584 328.189 872.584 337.771Q872.584 347.354 869.175 355.739Q865.766 364.124 859.684 370.390Q853.603 376.656 845.310 380.249Q837.017 383.843 827.434 383.843Q817.667 383.843 809.466 380.249Q801.266 376.656 795.184 370.390Q789.103 364.124 785.694 355.739Q782.284 347.354 782.284 337.771Q782.284 318.237 795.184 305.153ZM827.434 307.180Q814.534 307.180 806.702 315.657Q798.870 324.134 798.870 337.771Q798.870 351.409 806.702 359.886Q814.534 368.363 827.434 368.363Q840.519 368.363 848.259 359.794Q855.999 351.224 855.999 337.771Q855.999 324.319 848.259 315.749Q840.519 307.180 827.434 307.180Z" fill="#7A9A86"/>
      <!-- r -->
      <path d="M892.170 382.000V331.690Q892.170 310.497 900.094 302.389Q903.964 298.334 909.493 296.307Q915.021 294.280 919.168 293.911Q923.314 293.543 930.501 293.543H946.719V309.023H927.184Q923.499 309.023 921.471 309.207Q919.444 309.391 916.680 310.497Q913.916 311.603 911.889 313.999Q908.387 318.421 908.387 331.690V382.000Z" fill="#7A9A86"/>
      <!-- a -->
      <path d="M1010.901 330.031V346.617Q1003.899 341.273 993.763 341.273Q985.101 341.273 980.310 344.682Q975.519 348.091 975.519 354.357Q975.519 366.520 993.579 366.520H1017.904V331.321Q1017.904 309.023 996.159 309.023H966.673V293.543H997.080Q1014.956 293.543 1024.539 302.389Q1034.121 311.234 1034.121 327.820V382.000H993.026Q977.361 382.000 968.147 374.997Q958.933 367.994 958.933 354.541Q958.933 341.089 968.700 334.086Q978.467 327.083 993.210 327.083Q1001.503 327.083 1010.901 330.031Z" fill="#7A9A86"/>
    </g>
  </g>
</svg>
