<svg width="500" height="180" viewBox="0 0 500 180" fill="none" xmlns="http://www.w3.org/2000/svg">
  <!-- Background plants (faded) -->
  <g opacity="0.15" transform="translate(100, -20) scale(0.45)">
    <!-- Left plant -->
    <path d="M233.399 149.972L237.399 149.972L237.399 270.114L233.399 270.114L233.399 149.972Z" fill="#7A9A86"/>
    <path d="M280.485 171.514C280.485 183.114 270.542 208.8 237.399 206.314C237.399 184.772 251.485 171.514 280.485 171.514Z" fill="#7A9A86"/>
    <path d="M280.485 217.086C280.485 228.686 270.542 254.372 237.399 251.886C237.399 230.343 251.485 217.086 280.485 217.086Z" fill="#7A9A86"/>
    <path d="M234.085 252.054C234.085 240.454 224.142 214.768 190.999 217.254C190.999 238.797 205.085 252.054 234.085 252.054Z" fill="#7A9A86"/>
    <path d="M234.085 206.483C234.085 194.883 224.142 169.197 190.999 171.683C190.999 193.226 205.085 206.483 234.085 206.483Z" fill="#7A9A86"/>
    <path d="M293.742 91.9716C293.742 124.004 267.775 149.972 235.742 149.972C203.71 149.972 177.742 124.004 177.742 91.9716H293.742Z" fill="#7A9A86"/>
    <path d="M198.457 87.8286C198.457 81.8797 203.094 77.0572 208.814 77.0572C214.534 77.0572 219.171 81.8797 219.171 87.8286L198.457 87.8286Z" fill="#7A9A86"/>
    <path d="M224.97 87.8286C224.97 81.8797 229.607 77.0572 235.327 77.0572C241.048 77.0572 245.685 81.8797 245.685 87.8286L224.97 87.8286Z" fill="#7A9A86"/>
    <path d="M251.485 87.8286C251.485 81.8797 256.122 77.0572 261.842 77.0572C267.562 77.0572 272.199 81.8797 272.199 87.8286L251.485 87.8286Z" fill="#7A9A86"/>
    <!-- Middle plant (taller) -->
    <path d="M349.742 70.4288L353.742 70.4288L353.742 270.114L349.742 270.114L349.742 70.4288Z" fill="#7A9A86"/>
    <path d="M396.485 171.514C396.485 183.114 386.542 208.8 353.399 206.314C353.399 184.772 367.485 171.514 396.485 171.514Z" fill="#7A9A86"/>
    <path d="M396.485 125.943C396.485 137.543 386.542 163.229 353.399 160.743C353.399 139.2 367.485 125.943 396.485 125.943Z" fill="#7A9A86"/>
    <path d="M396.485 80.3716C396.485 91.9716 386.542 117.657 353.399 115.172C353.399 93.6287 367.485 80.3716 396.485 80.3716Z" fill="#7A9A86"/>
    <path d="M396.485 217.086C396.485 228.686 386.542 254.372 353.399 251.886C353.399 230.343 367.485 217.086 396.485 217.086Z" fill="#7A9A86"/>
    <path d="M350.085 252.054C350.085 240.454 340.142 214.768 306.999 217.254C306.999 238.797 321.085 252.054 350.085 252.054Z" fill="#7A9A86"/>
    <path d="M350.085 206.483C350.085 194.883 340.142 169.197 306.999 171.683C306.999 193.226 321.085 206.483 350.085 206.483Z" fill="#7A9A86"/>
    <path d="M350.085 160.911C350.085 149.311 340.142 123.626 306.999 126.111C306.999 147.654 321.085 160.911 350.085 160.911Z" fill="#7A9A86"/>
    <path d="M350.085 115.34C350.085 103.74 340.142 78.0541 306.999 80.5398C306.999 102.083 321.085 115.34 350.085 115.34Z" fill="#7A9A86"/>
    <path d="M409.742 14.9144C409.742 46.9469 383.775 72.9144 351.742 72.9144C319.71 72.9144 293.742 46.9469 293.742 14.9144H409.742Z" fill="#7A9A86"/>
    <path d="M314.457 10.7715C314.457 4.82259 319.094 0 324.814 0C330.534 0 335.171 4.82259 335.171 10.7715L314.457 10.7715Z" fill="#7A9A86"/>
    <path d="M340.97 10.7715C340.97 4.82259 345.607 0 351.327 0C357.048 0 361.685 4.82259 361.685 10.7715L340.97 10.7715Z" fill="#7A9A86"/>
    <path d="M367.485 10.7715C367.485 4.82259 372.122 0 377.842 0C383.562 0 388.199 4.82259 388.199 10.7715L367.485 10.7715Z" fill="#7A9A86"/>
  </g>

  <!-- Logo icon (centered above text) -->
  <g transform="translate(200, 8) scale(0.22)">
    <!-- Left plant -->
    <path d="M233.399 149.972L237.399 149.972L237.399 270.114L233.399 270.114L233.399 149.972Z" fill="#7A9A86"/>
    <path d="M280.485 171.514C280.485 183.114 270.542 208.8 237.399 206.314C237.399 184.772 251.485 171.514 280.485 171.514Z" fill="#7A9A86"/>
    <path d="M280.485 217.086C280.485 228.686 270.542 254.372 237.399 251.886C237.399 230.343 251.485 217.086 280.485 217.086Z" fill="#7A9A86"/>
    <path d="M234.085 252.054C234.085 240.454 224.142 214.768 190.999 217.254C190.999 238.797 205.085 252.054 234.085 252.054Z" fill="#7A9A86"/>
    <path d="M234.085 206.483C234.085 194.883 224.142 169.197 190.999 171.683C190.999 193.226 205.085 206.483 234.085 206.483Z" fill="#7A9A86"/>
    <path d="M293.742 91.9716C293.742 124.004 267.775 149.972 235.742 149.972C203.71 149.972 177.742 124.004 177.742 91.9716H293.742Z" fill="#7A9A86"/>
    <path d="M198.457 87.8286C198.457 81.8797 203.094 77.0572 208.814 77.0572C214.534 77.0572 219.171 81.8797 219.171 87.8286L198.457 87.8286Z" fill="#7A9A86"/>
    <path d="M224.97 87.8286C224.97 81.8797 229.607 77.0572 235.327 77.0572C241.048 77.0572 245.685 81.8797 245.685 87.8286L224.97 87.8286Z" fill="#7A9A86"/>
    <path d="M251.485 87.8286C251.485 81.8797 256.122 77.0572 261.842 77.0572C267.562 77.0572 272.199 81.8797 272.199 87.8286L251.485 87.8286Z" fill="#7A9A86"/>
    <!-- Middle plant (taller) -->
    <path d="M349.742 70.4288L353.742 70.4288L353.742 270.114L349.742 270.114L349.742 70.4288Z" fill="#7A9A86"/>
    <path d="M396.485 171.514C396.485 183.114 386.542 208.8 353.399 206.314C353.399 184.772 367.485 171.514 396.485 171.514Z" fill="#7A9A86"/>
    <path d="M396.485 125.943C396.485 137.543 386.542 163.229 353.399 160.743C353.399 139.2 367.485 125.943 396.485 125.943Z" fill="#7A9A86"/>
    <path d="M396.485 80.3716C396.485 91.9716 386.542 117.657 353.399 115.172C353.399 93.6287 367.485 80.3716 396.485 80.3716Z" fill="#7A9A86"/>
    <path d="M396.485 217.086C396.485 228.686 386.542 254.372 353.399 251.886C353.399 230.343 367.485 217.086 396.485 217.086Z" fill="#7A9A86"/>
    <path d="M350.085 252.054C350.085 240.454 340.142 214.768 306.999 217.254C306.999 238.797 321.085 252.054 350.085 252.054Z" fill="#7A9A86"/>
    <path d="M350.085 206.483C350.085 194.883 340.142 169.197 306.999 171.683C306.999 193.226 321.085 206.483 350.085 206.483Z" fill="#7A9A86"/>
    <path d="M350.085 160.911C350.085 149.311 340.142 123.626 306.999 126.111C306.999 147.654 321.085 160.911 350.085 160.911Z" fill="#7A9A86"/>
    <path d="M350.085 115.34C350.085 103.74 340.142 78.0541 306.999 80.5398C306.999 102.083 321.085 115.34 350.085 115.34Z" fill="#7A9A86"/>
    <path d="M409.742 14.9144C409.742 46.9469 383.775 72.9144 351.742 72.9144C319.71 72.9144 293.742 46.9469 293.742 14.9144H409.742Z" fill="#7A9A86"/>
    <path d="M314.457 10.7715C314.457 4.82259 319.094 0 324.814 0C330.534 0 335.171 4.82259 335.171 10.7715L314.457 10.7715Z" fill="#7A9A86"/>
    <path d="M340.97 10.7715C340.97 4.82259 345.607 0 351.327 0C357.048 0 361.685 4.82259 361.685 10.7715L340.97 10.7715Z" fill="#7A9A86"/>
    <path d="M367.485 10.7715C367.485 4.82259 372.122 0 377.842 0C383.562 0 388.199 4.82259 388.199 10.7715L367.485 10.7715Z" fill="#7A9A86"/>
  </g>

  <!-- Text: edaphic flora (using web font with fallback) -->
  <style>
    @import url('https://fonts.googleapis.com/css2?family=Baumans&amp;display=swap');
    .brand-text { font-family: 'Baumans', sans-serif; }
  </style>
  <text x="250" y="130" text-anchor="middle" class="brand-text" fill="#7A9A86" font-size="42" letter-spacing="2">edaphic</text>
  <text x="250" y="170" text-anchor="middle" class="brand-text" fill="#5D7A6A" font-size="42" letter-spacing="2">flora</text>
</svg>
