<svg width="500" height="120" viewBox="0 0 500 120" fill="none" xmlns="http://www.w3.org/2000/svg">
  <!-- Plant icons centered above "edaphic" -->
  <g transform="translate(95, 5) scale(0.18)">
    <!-- Left plant -->
    <path d="M233.399 149.972L237.399 149.972L237.399 270.114L233.399 270.114L233.399 149.972Z" fill="#7A9A86"/>
    <path d="M280.485 171.514C280.485 183.114 270.542 208.8 237.399 206.314C237.399 184.772 251.485 171.514 280.485 171.514Z" fill="#7A9A86"/>
    <path d="M280.485 217.086C280.485 228.686 270.542 254.372 237.399 251.886C237.399 230.343 251.485 217.086 280.485 217.086Z" fill="#7A9A86"/>
    <path d="M234.085 252.054C234.085 240.454 224.142 214.768 190.999 217.254C190.999 238.797 205.085 252.054 234.085 252.054Z" fill="#7A9A86"/>
    <path d="M234.085 206.483C234.085 194.883 224.142 169.197 190.999 171.683C190.999 193.226 205.085 206.483 234.085 206.483Z" fill="#7A9A86"/>
    <path d="M293.742 91.9716C293.742 124.004 267.775 149.972 235.742 149.972C203.71 149.972 177.742 124.004 177.742 91.9716H293.742Z" fill="#7A9A86"/>
    <path d="M198.457 87.8286C198.457 81.8797 203.094 77.0572 208.814 77.0572C214.534 77.0572 219.171 81.8797 219.171 87.8286L198.457 87.8286Z" fill="#7A9A86"/>
    <path d="M224.97 87.8286C224.97 81.8797 229.607 77.0572 235.327 77.0572C241.048 77.0572 245.685 81.8797 245.685 87.8286L224.97 87.8286Z" fill="#7A9A86"/>
    <path d="M251.485 87.8286C251.485 81.8797 256.122 77.0572 261.842 77.0572C267.562 77.0572 272.199 81.8797 272.199 87.8286L251.485 87.8286Z" fill="#7A9A86"/>
    <!-- Middle plant (taller) -->
    <path d="M349.742 70.4288L353.742 70.4288L353.742 270.114L349.742 270.114L349.742 70.4288Z" fill="#7A9A86"/>
    <path d="M396.485 171.514C396.485 183.114 386.542 208.8 353.399 206.314C353.399 184.772 367.485 171.514 396.485 171.514Z" fill="#7A9A86"/>
    <path d="M396.485 125.943C396.485 137.543 386.542 163.229 353.399 160.743C353.399 139.2 367.485 125.943 396.485 125.943Z" fill="#7A9A86"/>
    <path d="M396.485 80.3716C396.485 91.9716 386.542 117.657 353.399 115.172C353.399 93.6287 367.485 80.3716 396.485 80.3716Z" fill="#7A9A86"/>
    <path d="M396.485 217.086C396.485 228.686 386.542 254.372 353.399 251.886C353.399 230.343 367.485 217.086 396.485 217.086Z" fill="#7A9A86"/>
    <path d="M350.085 252.054C350.085 240.454 340.142 214.768 306.999 217.254C306.999 238.797 321.085 252.054 350.085 252.054Z" fill="#7A9A86"/>
    <path d="M350.085 206.483C350.085 194.883 340.142 169.197 306.999 171.683C306.999 193.226 321.085 206.483 350.085 206.483Z" fill="#7A9A86"/>
    <path d="M350.085 160.911C350.085 149.311 340.142 123.626 306.999 126.111C306.999 147.654 321.085 160.911 350.085 160.911Z" fill="#7A9A86"/>
    <path d="M350.085 115.34C350.085 103.74 340.142 78.0541 306.999 80.5398C306.999 102.083 321.085 115.34 350.085 115.34Z" fill="#7A9A86"/>
    <path d="M409.742 14.9144C409.742 46.9469 383.775 72.9144 351.742 72.9144C319.71 72.9144 293.742 46.9469 293.742 14.9144H409.742Z" fill="#7A9A86"/>
    <path d="M314.457 10.7715C314.457 4.82259 319.094 0 324.814 0C330.534 0 335.171 4.82259 335.171 10.7715L314.457 10.7715Z" fill="#7A9A86"/>
    <path d="M340.97 10.7715C340.97 4.82259 345.607 0 351.327 0C357.048 0 361.685 4.82259 361.685 10.7715L340.97 10.7715Z" fill="#7A9A86"/>
    <path d="M367.485 10.7715C367.485 4.82259 372.122 0 377.842 0C383.562 0 388.199 4.82259 388.199 10.7715L367.485 10.7715Z" fill="#7A9A86"/>
  </g>

  <!-- "edaphic" text as paths -->
  <g transform="translate(70, 63) scale(0.12)" fill="#7A9A86">
    <!-- e -->
    <path d="M45.8778 292.08C66.6757 292.936 77.0747 301.561 77.0747 317.955C77.0747 338.386 63.6784 348.601 36.8858 348.601H29.3618V334.471H38.1703C46.3672 334.471 52.056 333.247 55.2369 330.8C58.4177 328.231 60.0082 324.011 60.0082 318.138C60.0082 314.346 58.6012 311.532 55.7874 309.697C52.9736 307.739 49.3645 306.761 44.9603 306.761C36.2741 306.761 29.423 309.819 24.407 315.936C19.5134 322.053 17.0665 329.394 17.0665 337.957C17.0665 347.011 19.6969 354.351 24.9575 359.979C30.3405 365.606 37.3139 368.42 45.8778 368.42C53.5853 368.42 59.8858 366.524 64.7795 362.731L75.7901 373.559C67.3486 380.41 57.3778 383.835 45.8778 383.835C31.931 383.835 20.7979 379.737 12.4788 371.54C4.15959 363.343 0 352.761 0 339.793C0 325.356 4.09842 313.673 12.2953 304.742C20.4921 295.811 31.6863 291.59 45.8778 292.08Z"/>
    <!-- d -->
    <path d="M164.222 253.542H180.738V382H137.613C124.277 382 113.45 377.779 105.131 369.338C96.8119 360.774 92.6523 350.008 92.6523 337.04C92.6523 324.316 96.9343 313.673 105.498 305.109C114.184 296.423 124.461 292.08 136.328 292.08C143.913 292.08 151.009 293.915 157.615 297.585V314.101C151.498 309.697 144.403 307.495 136.328 307.495C128.988 307.495 122.748 310.247 117.61 315.753C112.594 321.136 110.086 328.231 110.086 337.04C110.086 345.971 112.472 353.128 117.243 358.511C122.136 363.894 128.926 366.585 137.613 366.585H164.222V253.542Z"/>
    <!-- a -->
    <path d="M251.749 330.25V346.766C247.1 343.218 241.411 341.444 234.683 341.444C228.933 341.444 224.467 342.606 221.286 344.931C218.105 347.133 216.515 350.314 216.515 354.473C216.515 362.548 222.51 366.585 234.499 366.585H258.723V331.534C258.723 316.731 251.505 309.33 237.068 309.33H207.706V293.915H237.986C249.853 293.915 258.967 296.851 265.329 302.723C271.691 308.596 274.872 317.037 274.872 328.048V382H233.949C223.55 382 215.292 379.676 209.175 375.027C203.058 370.378 199.999 363.588 199.999 354.657C199.999 345.726 203.241 338.936 209.725 334.287C216.209 329.638 224.345 327.314 234.132 327.314C239.637 327.314 245.51 328.292 251.749 330.25Z"/>
    <!-- p -->
    <path d="M295.045 423.841V337.957C295.045 331.596 296.207 325.601 298.532 319.973C300.856 314.346 304.037 309.513 308.074 305.476C312.111 301.316 316.883 298.074 322.388 295.75C327.893 293.303 333.766 292.08 340.005 292.08C346.245 292.08 352.056 293.303 357.439 295.75C362.944 298.074 367.715 301.316 371.753 305.476C375.912 309.635 379.154 314.529 381.479 320.157C383.803 325.662 384.965 331.596 384.965 337.957C384.965 344.319 383.803 350.314 381.479 355.941C379.277 361.447 376.157 366.279 372.12 370.439C368.082 374.598 363.311 377.902 357.806 380.348C352.3 382.673 346.367 383.835 340.005 383.835C332.175 383.835 324.896 382 318.167 378.33V361.814C324.162 366.218 331.258 368.42 339.455 368.42C343.859 368.42 347.835 367.686 351.383 366.218C355.053 364.628 358.112 362.487 360.558 359.795C363.128 357.104 365.085 353.923 366.431 350.253C367.777 346.46 368.449 342.362 368.449 337.957C368.449 333.553 367.777 329.516 366.431 325.846C365.085 322.053 363.189 318.811 360.742 316.12C358.295 313.428 355.298 311.348 351.75 309.88C348.324 308.29 344.409 307.495 340.005 307.495C335.723 307.495 331.808 308.229 328.26 309.697C324.835 311.165 321.838 313.245 319.268 315.936C316.822 318.628 314.925 321.87 313.58 325.662C312.234 329.332 311.561 333.431 311.561 337.957V423.841H295.045Z"/>
    <!-- h -->
    <path d="M420.333 253.542V293.915H435.931C449.511 293.915 459.237 295.933 465.109 299.971C470.37 303.518 473.673 307.8 475.019 312.816C476.487 317.71 477.221 324.194 477.221 332.269V382H461.072V332.452C461.072 330.25 461.011 328.415 460.889 326.947C460.766 325.356 460.338 323.399 459.604 321.074C458.87 318.628 457.83 316.67 456.484 315.202C455.139 313.612 453.181 312.266 450.612 311.165C448.043 309.941 444.923 309.33 441.253 309.33H420.333V382H404.184V253.542H420.333Z"/>
    <!-- i -->
    <path d="M523.021 382H506.872V309.33H491.824L499.165 293.915H523.021V382ZM506.138 275.564C504.548 273.484 503.752 271.221 503.752 268.774C503.752 266.327 504.548 264.125 506.138 262.167C507.729 260.088 510.175 259.048 513.479 259.048C516.782 259.048 519.229 260.088 520.819 262.167C522.409 264.125 523.205 266.327 523.205 268.774C523.205 271.221 522.409 273.484 520.819 275.564C519.229 277.521 516.782 278.5 513.479 278.5C510.175 278.5 507.729 277.521 506.138 275.564Z"/>
    <!-- c -->
    <path d="M607.743 362.731L618.754 373.559C610.312 380.41 600.647 383.835 589.759 383.835C576.179 383.835 565.291 379.492 557.094 370.806C548.897 361.997 544.799 351.048 544.799 337.957C544.799 325.112 549.081 314.284 557.645 305.476C566.331 296.545 577.036 292.08 589.759 292.08C600.647 292.08 610.312 295.505 618.754 302.356L607.927 313.367C602.788 309.452 596.733 307.495 589.759 307.495C581.318 307.495 574.589 310.308 569.573 315.936C564.679 321.441 562.232 328.782 562.232 337.957C562.232 347.133 564.679 354.535 569.573 360.162C574.589 365.668 581.318 368.42 589.759 368.42C596.855 368.42 602.85 366.524 607.743 362.731Z"/>
  </g>

  <!-- "flora" text as paths (same line, after edaphic) -->
  <g transform="translate(222, 63) scale(0.12)" fill="#5D7A6A">
    <!-- f -->
    <path d="M0 382V293.915H15.782V253.542H31.931V293.915H56.155V309.33H31.931V382H15.782V309.33H0V293.915H0V382ZM15.782 275.564C14.192 273.484 13.396 271.221 13.396 268.774C13.396 266.327 14.192 264.125 15.782 262.167C17.373 260.088 19.819 259.048 23.123 259.048C26.426 259.048 28.873 260.088 30.463 262.167C32.053 264.125 32.849 266.327 32.849 268.774C32.849 271.221 32.053 273.484 30.463 275.564C28.873 277.521 26.426 278.5 23.123 278.5C19.819 278.5 17.373 277.521 15.782 275.564Z"/>
    <!-- l -->
    <path d="M80 382V253.542H96.149V382H80Z"/>
    <!-- o -->
    <path d="M180.005 292.08C186.245 292.08 192.056 293.303 197.439 295.75C202.944 298.074 207.715 301.316 211.753 305.476C215.912 309.635 219.154 314.529 221.479 320.157C223.803 325.662 224.965 331.596 224.965 337.957C224.965 344.319 223.803 350.314 221.479 355.941C219.277 361.447 216.157 366.279 212.12 370.439C208.082 374.598 203.311 377.902 197.806 380.348C192.3 382.673 186.367 383.835 180.005 383.835C173.643 383.835 167.71 382.673 162.204 380.348C156.699 377.902 151.928 374.598 147.89 370.439C143.853 366.279 140.733 361.447 138.531 355.941C136.207 350.314 135.045 344.319 135.045 337.957C135.045 331.596 136.207 325.662 138.531 320.157C140.856 314.529 144.098 309.635 148.257 305.476C152.295 301.316 157.066 298.074 162.571 295.75C167.954 293.303 173.765 292.08 180.005 292.08ZM180.005 307.495C175.601 307.495 171.686 308.29 168.26 309.88C164.712 311.348 161.715 313.428 159.268 316.12C156.821 318.811 154.925 322.053 153.579 325.846C152.233 329.516 151.561 333.553 151.561 337.957C151.561 342.362 152.233 346.46 153.579 350.253C154.925 353.923 156.882 357.104 159.452 359.795C161.898 362.487 164.957 364.628 168.627 366.218C172.175 367.686 176.151 368.42 180.555 368.42C184.959 368.42 188.935 367.686 192.483 366.218C196.153 364.628 199.212 362.487 201.658 359.795C204.228 357.104 206.185 353.923 207.531 350.253C208.877 346.46 209.549 342.362 209.549 337.957C209.549 333.553 208.877 329.516 207.531 325.846C206.185 322.053 204.289 318.811 201.842 316.12C199.395 313.428 196.398 311.348 192.85 309.88C189.424 308.29 185.509 307.495 181.105 307.495H180.005Z"/>
    <!-- r -->
    <path d="M250 382V293.915H266.149V310.431C272.144 298.831 281.319 293.031 293.675 293.031V309.33C280.095 309.33 266.149 316.976 266.149 337.04V382H250Z"/>
    <!-- a -->
    <path d="M361.749 330.25V346.766C357.1 343.218 351.411 341.444 344.683 341.444C338.933 341.444 334.467 342.606 331.286 344.931C328.105 347.133 326.515 350.314 326.515 354.473C326.515 362.548 332.51 366.585 344.499 366.585H368.723V331.534C368.723 316.731 361.505 309.33 347.068 309.33H317.706V293.915H347.986C359.853 293.915 368.967 296.851 375.329 302.723C381.691 308.596 384.872 317.037 384.872 328.048V382H343.949C333.55 382 325.292 379.676 319.175 375.027C313.058 370.378 309.999 363.588 309.999 354.657C309.999 345.726 313.241 338.936 319.725 334.287C326.209 329.638 334.345 327.314 344.132 327.314C349.637 327.314 355.51 328.292 361.749 330.25Z"/>
  </g>
</svg>
